<svg id="Capa_1" enable-background="new 0 0 512 512" height="512" viewBox="0 0 512 512" width="512" xmlns="http://www.w3.org/2000/svg"><g><path d="m238.627 199.495c-16.002 0-29.021 13.019-29.021 29.021v25.931h-49.472c-16.002 0-29.021 13.019-29.021 29.021s13.019 29.021 29.021 29.021h78.493c16.002 0 29.02-13.019 29.02-29.021v-54.951c.001-16.003-13.017-29.022-29.02-29.022zm-92.513 83.972c0-7.731 6.29-14.021 14.021-14.021h49.472v14.021c0 5.083 1.317 9.862 3.622 14.021h-53.094c-7.731 0-14.021-6.289-14.021-14.021zm106.534 0c0 7.731-6.29 14.021-14.021 14.021s-14.021-6.29-14.021-14.021v-54.951c0-7.731 6.29-14.021 14.021-14.021s14.021 6.29 14.021 14.021z"/><path d="m478.427 159.659c-.157-.064-.315-.126-.475-.188l-.189-.074c-.058-.024-.116-.048-.175-.07-7.229-2.801-12.201-9.5-12.665-17.077-.375-5.965-.901-11.648-1.564-16.892-.52-4.109-4.268-7.012-8.382-6.5-4.109.52-7.019 4.273-6.5 8.382.624 4.932 1.121 10.298 1.475 15.938.819 13.367 9.505 25.174 22.138 30.104.146.06.292.117.44.174l.188.074c.042.018.084.035.126.051 11.258 4.463 14.604 14.531 13.981 22.466-.62 7.897-5.472 17.275-17.234 19.915-23.576 5.307-52.407 7.997-85.693 7.997-33.293 0-62.127-2.69-85.708-7.998-11.758-2.639-16.61-12.017-17.23-19.914-.623-7.935 2.724-18.003 14.006-22.476l.662-.259c12.669-4.909 21.386-16.737 22.207-30.133.662-10.758 1.924-20.938 3.754-30.256 5.639-28.749 28.812-50.409 57.656-53.897.032-.004.065-.008.097-.012 3.03-.36 6.089-.361 9.119.002.026.003.051.006.077.009 23.763 2.874 44.275 18.432 53.615 40.637 1.59 3.78 5.822 5.918 9.667 4.492 4.011-1.488 5.95-5.991 4.327-9.906-9.175-22.137-27.424-38.926-49.539-46.413 4.336-5.308 6.854-12.156 6.588-19.588-.534-14.906-12.494-27.232-27.378-28.187-17.033-1.092-31.241 12.455-31.241 29.258 0 7.007 2.474 13.446 6.59 18.495-14.038 4.718-26.368 13.124-35.854 24.148-40.789-16.7-85.265-21.251-128.793-13.133-45.396 8.467-86.716 30.265-119.495 63.039-41.251 41.256-64.979 96.076-66.814 154.361-1.826 58.017 18.144 113.958 56.231 157.519 1.483 1.696 3.56 2.563 5.649 2.563 1.794 0 3.596-.64 5.035-1.945 3.051-2.765 3.157-7.57.45-10.673-35.478-40.668-54.076-92.861-52.372-146.992 1.714-54.458 23.885-105.678 62.428-144.226 30.628-30.623 69.232-50.99 111.639-58.899 39.535-7.375 79.903-3.567 117.129 10.978-4.462 7.748-7.732 16.317-9.53 25.483-.635 3.236-1.199 6.573-1.705 9.983-21.095-8.614-43.427-12.979-66.533-12.979-97.289 0-176.44 79.146-176.44 176.429 0 97.67 78.739 176.414 176.409 176.431 97.298.017 176.461-79.136 176.461-176.43 0-15.301-1.956-30.413-5.814-45.056 13.296-.591 25.781-1.667 37.414-3.212 7.755 33.584 7.3 68.76-1.377 102.163-9.511 36.611-28.761 70.186-55.668 97.092-38.548 38.548-89.769 60.722-144.227 62.436-54.121 1.688-106.313-16.893-146.98-52.369-3.073-2.681-7.827-2.628-10.61.353-2.906 3.113-2.64 7.987.541 10.769 41.731 36.493 94.819 56.355 150.215 56.354 2.428 0 4.868-.039 7.304-.115 58.285-1.834 113.105-25.565 154.361-66.822 28.794-28.794 49.397-64.732 59.58-103.927 9.194-35.388 9.759-72.637 1.715-108.251 3.899-.704 7.697-1.462 11.365-2.287 16.25-3.646 27.594-16.748 28.899-33.376 1.308-16.657-7.857-31.394-23.353-37.563zm-94.531-144.659c7.896 0 14.319 6.424 14.319 14.319 0 7.896-6.424 14.32-14.319 14.32s-14.319-6.424-14.319-14.32c0-7.895 6.424-14.319 14.319-14.319zm-33.46 222.981c-2.75 8.366-10.624 14.429-19.898 14.429-10.868 0-19.824-8.318-20.849-18.921 12.483 2.105 26.1 3.601 40.747 4.492zm49.447 37.986h-28.055c-4.142 0-7.5 3.358-7.5 7.5s3.358 7.5 7.5 7.5h28.053c-1.099 23.923-7.429 46.503-17.872 66.622l-11.852-6.843c-3.588-2.073-8.174-.842-10.245 2.745s-.842 8.174 2.745 10.245l11.835 6.833c-12.567 19.535-29.229 36.196-48.763 48.763l-6.833-11.835c-2.071-3.588-6.658-4.816-10.245-2.745s-4.816 6.658-2.745 10.245l6.842 11.852c-20.119 10.442-42.698 16.771-66.621 17.871v-28.052c0-4.142-3.358-7.5-7.5-7.5s-7.5 3.358-7.5 7.5v28.052c-23.923-1.1-46.502-7.43-66.62-17.872l6.842-11.85c2.071-3.587.842-8.174-2.745-10.245-3.587-2.072-8.174-.842-10.245 2.745l-6.832 11.833c-19.535-12.566-36.197-29.228-48.765-48.761l11.836-6.833c3.587-2.071 4.816-6.658 2.745-10.245s-6.658-4.817-10.245-2.745l-11.853 6.843c-10.444-20.119-16.774-42.699-17.873-66.622h28.056c4.142 0 7.5-3.358 7.5-7.5s-3.358-7.5-7.5-7.5h-28.056c1.1-23.923 7.431-46.502 17.875-66.621l11.851 6.842c1.181.682 2.471 1.006 3.743 1.006 2.592 0 5.113-1.346 6.502-3.751 2.071-3.587.842-8.174-2.745-10.245l-11.834-6.833c12.568-19.533 29.23-36.193 48.764-48.759l6.83 11.831c1.389 2.406 3.91 3.751 6.502 3.751 1.272 0 2.562-.324 3.743-1.006 3.587-2.071 4.816-6.658 2.745-10.245l-6.84-11.847c20.118-10.441 42.696-16.771 66.618-17.871v28.047c0 4.142 3.358 7.5 7.5 7.5s7.5-3.358 7.5-7.5v-28.045c19.885.896 39.085 5.362 57.236 13.326-.19 2.216-.361 4.45-.5 6.714-.464 7.567-5.431 14.266-12.732 17.096l-.716.28c-15.529 6.155-24.717 20.908-23.409 37.583 1.297 16.53 12.517 29.57 28.608 33.305-.008.311-.028.621-.028.932 0 19.824 16.128 35.951 35.952 35.951 17.35 0 31.868-12.354 35.222-28.727 5.9.182 11.945.277 18.139.277 3.352 0 6.649-.035 9.916-.088 3.46 12.056 5.492 24.485 6.069 37.096z"/></g></svg>